<?xml version="1.0" encoding="utf-8"?>
<!-- Generator: Adobe Illustrator 15.0.0, SVG Export Plug-In . SVG Version: 6.00 Build 0)  -->
<!DOCTYPE svg PUBLIC "-//W3C//DTD SVG 1.1//EN" "http://www.w3.org/Graphics/SVG/1.1/DTD/svg11.dtd">
<svg version="1.1" id="Layer_1" xmlns="http://www.w3.org/2000/svg" xmlns:xlink="http://www.w3.org/1999/xlink" x="0px" y="0px"
	 width="111px" height="117px" viewBox="0 0 111 117" enable-background="new 0 0 111 117" xml:space="preserve">
<g>
	<path fill="#E31E25" d="M100.426,36.241c-0.633-0.788-1.541-1.24-2.493-1.24H80.267v9.889c0,4.542-3.696,8.238-8.239,8.238
		s-8.24-3.696-8.24-8.238v-9.889H47.309v9.889c0,4.542-3.696,8.238-8.239,8.238c-4.543,0-8.239-3.696-8.239-8.238v-9.889H13.167
		c-0.954,0-1.862,0.452-2.497,1.24c-0.635,0.789-0.936,1.84-0.828,2.89l5.929,57.485c0.11,6.48,4.903,11.716,10.779,11.716h57.997
		c5.876,0,10.67-5.235,10.781-11.717l5.929-57.486C101.363,38.082,101.063,37.03,100.426,36.241z"/>
	<path fill="#E31E25" d="M39.07,48.186c1.818,0,3.296-1.479,3.296-3.295V26.763c0-5.089,5.132-8.239,9.887-8.239h8.24
		c5.004,0,8.238,3.234,8.238,8.239V44.89c0,1.817,1.479,3.295,3.296,3.295c1.816,0,3.295-1.479,3.295-3.295V26.763
		c0-8.593-6.236-14.831-14.829-14.831h-8.24c-9.087,0-16.479,6.653-16.479,14.831V44.89C35.774,46.707,37.252,48.186,39.07,48.186z"
		/>
</g>
</svg>
